#!OML:ASF C:\ViconDB\ViconDB\414\Spring2016\041811\Spring2016.ASF
:FULLY-SPECIFIED
:DEGREES
335
root 9.61533 18.4564 -37.5489 -181.451 -1.69282 -178.645
lowerback 2.67386 -0.299155 -3.51652
upperback 1.39628 -0.515879 0.575018
thorax -0.0300219 -0.293798 2.5759
lowerneck -10.4795 -3.22911 -9.64487
upperneck 16.9128 -6.24298 14.2151
head 7.64582 -2.73816 5.68304
rclavicle 3.59055e-015 4.77083e-015
rhumerus -46.1109 -23.6917 -79.3257
rradius 33.9612
rwrist 40.4355
rhand -33.7293 -14.2198
rfingers 7.12502
rthumb -6.91824 -44.0868
lclavicle 3.59055e-015 4.77083e-015
lhumerus -29.9543 -10.7695 90.9668
lradius 31.8077
lwrist -28.7263
lhand -29.8794 15.6165
lfingers 7.12502
lthumb -3.201 45.5722
rfemur 155.36 28.6973 -167.515
rtibia 44.9695
rfoot 8.61036 -61.2465
rtoes -9.54166e-015
lfemur -3.5098 -9.98721 -21.4284
ltibia 22.1841
lfoot -20.435 8.07381
ltoes -1.2921e-014
336
root 9.60597 18.4614 -37.7084 -181.305 -1.7956 -178.72
lowerback 2.56501 -0.362832 -3.51024
upperback 1.35933 -0.595047 0.537184
thorax -0.0019 -0.332283 2.53459
lowerneck -10.3978 -3.16723 -9.54606
upperneck 17.0001 -6.22189 14.2592
head 7.65429 -2.72861 5.68521
rclavicle 8.01351e-015 1.47101e-014
rhumerus -46.5224 -23.5586 -79.4524
rradius 33.9339
rwrist 39.8946
rhand -33.8108 -14.262
rfingers 7.12502
rthumb -6.99689 -44.1263
lclavicle 8.01351e-015 1.47101e-014
lhumerus -29.675 -11.6663 90.8697
lradius 32.6077
lwrist -28.1214
lhand -29.7457 15.7031
lfingers 7.12502
lthumb -3.07188 45.6607
rfemur 158.933 29.3507 -166.607
rtibia 42.7438
rfoot 5.80559 -59.1372
rtoes -1.47896e-013
lfemur -2.71495 -10.0086 -21.6199
ltibia 21.517
lfoot -20.5764 8.08945
ltoes -8.94531e-015
337
root 9.59693 18.4602 -37.8724 -181.248 -1.9071 -178.968
lowerback 2.48286 -0.418053 -3.76426
upperback 1.38458 -0.670859 0.563603
thorax 0.0789635 -0.373738 2.70528
lowerneck -10.4837 -3.16982 -9.57038
upperneck 17.2212 -6.22889 14.1555
head 7.73991 -2.73796 5.65714
rclavicle 2.59662e-015 2.98177e-015
rhumerus -46.9317 -23.9711 -78.9409
rradius 33.8009
rwrist 40.406
rhand -33.6471 -14.2766
rfingers 7.12502
rthumb -6.83887 -44.1461
lclavicle 2.59662e-015 2.98177e-015
lhumerus -29.3537 -12.2623 90.8946
lradius 33.3948
lwrist -27.575
lhand -29.7561 15.3588
lfingers 7.12502
lthumb -3.0819 45.3162
rfemur 162.434 30.2333 -165.896
rtibia 40.3875
rfoot 3.02492 -57.0902
rtoes -1.49486e-013
lfemur -1.79777 -10.0468 -22.0179
ltibia 20.8346
lfoot -20.8537 8.10149
ltoes -3.47873e-015
338
root 9.58709 18.4555 -38.041 -181.172 -1.93519 -178.834
lowerback 2.3258 -0.493373 -3.60815
upperback 1.38665 -0.760256 0.660234
thorax 0.174868 -0.41916 2.71702
lowerneck -10.4706 -3.10694 -9.57499
upperneck 17.3862 -6.17104 14.1307
head 7.78219 -2.7167 5.65927
rclavicle -1.0958e-014 4.37326e-015
rhumerus -47.3127 -24.0162 -78.7364
rradius 33.6727
rwrist 40.4895
rhand -33.6221 -14.2641
rfingers 7.12502
rthumb -6.81481 -44.1344
lclavicle -1.0958e-014 4.37326e-015
lhumerus -29.0404 -12.6474 90.7676
lradius 34.0447
lwrist -27.4062
lhand -29.759 15.2614
lfingers 7.12502
lthumb -3.08476 45.2188
rfemur 166.081 31.3012 -164.625
rtibia 37.9273
rfoot 0.4079 -55.0972
rtoes 2.75118e-013
lfemur -0.873607 -9.96345 -21.9711
ltibia 20.1102
lfoot -21.0225 8.04256
ltoes -8.15017e-015
339
root 9.57879 18.45 -38.2065 -181.06 -2.06424 -178.885
lowerback 2.18321 -0.597387 -3.57594
upperback 1.39449 -0.892012 0.647994
thorax 0.271781 -0.486416 2.68678
lowerneck -10.5545 -4.1115 -9.30333
upperneck 17.8702 -5.86011 13.8709
head 7.93233 -1.85811 5.66047
rclavicle 2.14936e-015 9.93923e-016
rhumerus -47.713 -24.3463 -78.4724
rradius 33.5117
rwrist 41.0893
rhand -33.786 -14.2595
rfingers 7.12502
rthumb -6.97301 -44.1246
lclavicle 2.14936e-015 9.93923e-016
lhumerus -28.8183 -13.3427 90.664
lradius 34.8144
lwrist -26.6874
lhand -29.7691 15.3639
lfingers 7.12502
lthumb -3.09444 45.3212
rfemur 169.865 32.6708 -163.395
rtibia 35.4788
rfoot -2.89074 -53.4623
rtoes -3.65764e-014
lfemur -2.96925e-005 -9.87355 -22.1085
ltibia 19.3426
lfoot -21.1366 7.90883
ltoes -1.53064e-014
340
root 9.57468 18.4454 -38.3747 -180.981 -2.10737 -178.956
lowerback 2.09218 -0.618764 -3.63868
upperback 1.34525 -0.916403 0.691692
thorax 0.275872 -0.497499 2.76657
lowerneck -10.4728 -4.11889 -9.33448
upperneck 18.0712 -5.86253 13.8292
head 7.98325 -1.85668 5.6588
rclavicle 5.93869e-015 7.95139e-015
rhumerus -48.2105 -24.581 -78.1048
rradius 33.3449
rwrist 41.4763
rhand -33.6474 -14.0437
rfingers 7.12502
rthumb -6.83922 -43.9132
lclavicle 5.93869e-015 7.95139e-015
lhumerus -28.6425 -13.5644 90.534
lradius 35.401
lwrist -26.8655
lhand -29.9234 15.164
lfingers 7.12502
lthumb -3.24345 45.1191
rfemur 173.655 34.2394 -161.99
rtibia 33.1153
rfoot -6.80573 -51.6938
rtoes -7.71285e-014
lfemur 0.918634 -9.75924 -22.2531
ltibia 18.5663
lfoot -21.0944 7.83943
ltoes -1.73937e-015
341
root 9.56862 18.4413 -38.5425 -180.82 -2.26191 -179.051
lowerback 1.89137 -0.711151 -3.69852
upperback 1.31471 -1.03076 0.712874
thorax 0.367194 -0.555432 2.8209
lowerneck -10.3969 -4.09636 -9.28093
upperneck 18.1811 -5.82752 13.7313
head 7.99615 -1.84213 5.62317
rclavicle -1.00697e-014 1.05356e-014
rhumerus -48.5882 -24.7803 -77.8321
rradius 33.1697
rwrist 41.7242
rhand -33.4887 -13.7798
rfingers 7.12502
rthumb -6.68603 -43.6543
lclavicle -1.00697e-014 1.05356e-014
lhumerus -28.4712 -13.9609 90.4022
lradius 36.0445
lwrist -26.618
lhand -29.9688 14.951
lfingers 7.12502
lthumb -3.28735 44.9054
rfemur 177.592 36.4733 -160.208
rtibia 31.0045
rfoot -11.7873 -50.161
rtoes 8.0309e-014
lfemur 1.79731 -9.51952 -22.3784
ltibia 17.7003
lfoot -21.0096 7.52675
ltoes -1.6201e-014
342
root 9.56628 18.4361 -38.7118 -180.708 -2.29272 -179.114
lowerback 1.7345 -0.764669 -3.71343
upperback 1.29084 -1.09477 0.73439
thorax 0.436246 -0.587846 2.84985
lowerneck -10.4237 -4.08244 -9.34524
upperneck 18.4352 -5.80454 13.7687
head 8.08504 -1.81793 5.65948
rclavicle 3.72721e-016 7.35503e-015
rhumerus -48.9283 -24.7087 -77.7166
rradius 33.0226
rwrist 41.9508
rhand -33.4343 -13.8492
rfingers 7.12502
rthumb -6.63352 -43.7253
lclavicle 3.72721e-016 7.35503e-015
lhumerus -28.245 -14.2575 90.2514
lradius 36.5447
lwrist -26.5177
lhand -30.178 15.161
lfingers 7.12502
lthumb -3.48931 45.1122
rfemur 181.623 39.2527 -157.789
rtibia 29.2188
rfoot -17.6041 -49.0828
rtoes -1.82882e-014
lfemur 2.82121 -9.28923 -22.4656
ltibia 16.6491
lfoot -20.8978 7.34221
ltoes -1.81391e-014
